<svg class="main-svg" xmlns="http://www.w3.org/2000/svg" xmlns:xlink="http://www.w3.org/1999/xlink" width="700" height="500" style="" viewBox="0 0 700 500"><rect x="0" y="0" width="700" height="500" style="fill: rgb(255, 255, 255); fill-opacity: 1;"/><defs id="defs-40291f"><g class="clips"/><g class="gradients"/></defs><g class="bglayer"/><g class="layer-below"><g class="imagelayer"/><g class="shapelayer"/></g><g class="cartesianlayer"/><g class="polarlayer"/><g class="ternarylayer"/><g class="geolayer"/><g class="funnelarealayer"/><g class="pielayer"/><g class="treemaplayer"/><g class="sunburstlayer"><g class="trace sunburst" stroke-linejoin="round" style="opacity: 1;"><g class="slice cursor-pointer"><path class="surface" d="M350,260L390,260A40,40 0,1,0 310.7139641819553,267.5237882548163L350,260A0,0 0,1,1 350,260Z" style="pointer-events: all; stroke-width: 1; fill: rgb(99, 110, 250); fill-opacity: 1; stroke: rgb(255, 255, 255); stroke-opacity: 1;"/><g class="slicetext"><text data-notex="1" class="slicetext" text-anchor="middle" x="0" y="0" style="font-family: 'Open Sans', verdana, arial, sans-serif; font-size: 12px; fill: rgb(255, 255, 255); fill-opacity: 1; white-space: pre;" transform="translate(349.45705494236387,254.27841935086207)scale(0.8694212866243352)rotate(-5.420807138511464)">Finland: 7.842</text></g></g><g class="slice cursor-pointer"><path class="surface" d="M350,260L310.7139641819553,267.5237882548163A40,40 0,0,0 390,260L350,260A0,0 0,0,1 350,260Z" style="pointer-events: all; stroke-width: 1; fill: rgb(239, 85, 59); fill-opacity: 1; stroke: rgb(255, 255, 255); stroke-opacity: 1;"/><g class="slicetext"><text data-notex="1" class="slicetext" text-anchor="middle" x="0" y="0" style="font-family: 'Open Sans', verdana, arial, sans-serif; font-size: 12px; fill: rgb(68, 68, 68); fill-opacity: 1; white-space: pre;" transform="translate(351.4103050277987,274.86186096170894)scale(0.608071520149457)rotate(-5.420807138511464)">United States: 6.951</text></g></g><g class="slice cursor-pointer"><path class="surface" d="M390,260L430,260A80,80 0,1,0 271.42792836391067,275.0475765096325L310.7139641819553,267.5237882548163A40,40 0,1,1 390,260Z" style="pointer-events: all; stroke-width: 1; fill: rgb(99, 110, 250); fill-opacity: 1; stroke: rgb(255, 255, 255); stroke-opacity: 1;"/><g class="slicetext"><text data-notex="1" class="slicetext" text-anchor="middle" x="0" y="0" style="font-family: 'Open Sans', verdana, arial, sans-serif; font-size: 12px; fill: rgb(255, 255, 255); fill-opacity: 1; white-space: pre;" transform="translate(345.8641451152603,216.4161659759906)scale(0.6694487822653056)rotate(-5.420807138511464)">Logged GDP per capita: 10.775</text></g></g><g class="slice cursor-pointer"><path class="surface" d="M310.7139641819553,267.5237882548163L271.42792836391067,275.0475765096325A80,80 0,0,0 430,260L390,260A40,40 0,0,1 310.7139641819553,267.5237882548163Z" style="pointer-events: all; stroke-width: 1; fill: rgb(239, 85, 59); fill-opacity: 1; stroke: rgb(255, 255, 255); stroke-opacity: 1;"/><g class="slicetext"><text data-notex="1" class="slicetext" text-anchor="middle" x="0" y="0" style="font-family: 'Open Sans', verdana, arial, sans-serif; font-size: 12px; fill: rgb(68, 68, 68); fill-opacity: 1; white-space: pre;" transform="translate(354.74258977804385,309.97763497285695)scale(0.6694487822653056)rotate(-5.420807138511464)">Logged GDP per capita: 11.023</text></g></g><g class="slice cursor-pointer"><path class="surface" d="M430,260L470,260A120,120 0,1,0 232.14189254586597,282.5713647644488L271.42792836391067,275.0475765096325A80,80 0,1,1 430,260Z" style="pointer-events: all; stroke-width: 1; fill: rgb(99, 110, 250); fill-opacity: 1; stroke: rgb(255, 255, 255); stroke-opacity: 1;"/><g class="slicetext"><text data-notex="1" class="slicetext" text-anchor="middle" x="0" y="0" style="font-family: 'Open Sans', verdana, arial, sans-serif; font-size: 12px; fill: rgb(255, 255, 255); fill-opacity: 1; white-space: pre;" transform="translate(342.0412429977541,176.13024298720228)rotate(-5.420807138511464)">Social support: 0.954</text></g></g><g class="slice cursor-pointer"><path class="surface" d="M271.42792836391067,275.0475765096325L232.14189254586597,282.5713647644488A120,120 0,0,0 470,260.00000000000006L430,260A80,80 0,0,1 271.42792836391067,275.0475765096325Z" style="pointer-events: all; stroke-width: 1; fill: rgb(239, 85, 59); fill-opacity: 1; stroke: rgb(255, 255, 255); stroke-opacity: 1;"/><g class="slicetext"><text data-notex="1" class="slicetext" text-anchor="middle" x="0" y="0" style="font-family: 'Open Sans', verdana, arial, sans-serif; font-size: 12px; fill: rgb(68, 68, 68); fill-opacity: 1; white-space: pre;" transform="translate(358.89595877893976,353.7460335797412)rotate(-5.420807138511464)">Social support: 0.92</text></g></g><g class="slice"><path class="surface" d="M470,260L510,260A160,160 0,1,0 192.8558567278213,290.09515301926507L232.14189254586597,282.5713647644488A120,120 0,1,1 470,260Z" style="pointer-events: all; stroke-width: 1; fill: rgb(99, 110, 250); fill-opacity: 1; stroke: rgb(255, 255, 255); stroke-opacity: 1; opacity: 0.7;"/><g class="slicetext"><text data-notex="1" class="slicetext" text-anchor="middle" x="0" y="0" style="font-family: 'Open Sans', verdana, arial, sans-serif; font-size: 12px; fill: rgb(255, 255, 255); fill-opacity: 1; white-space: pre;" transform="translate(338.38075994314363,137.55589975081367)scale(0.8196245243466699)rotate(-5.420807138511464)">Freedom to make life choices: 0.949</text></g></g><g class="slice"><path class="surface" d="M232.14189254586597,282.5713647644488L192.8558567278213,290.09515301926507A160,160 0,0,0 510,260.00000000000006L470,260.00000000000006A120,120 0,0,1 232.14189254586597,282.5713647644488Z" style="pointer-events: all; stroke-width: 1; fill: rgb(239, 85, 59); fill-opacity: 1; stroke: rgb(255, 255, 255); stroke-opacity: 1; opacity: 0.7;"/><g class="slicetext"><text data-notex="1" class="slicetext" text-anchor="middle" x="0" y="0" style="font-family: 'Open Sans', verdana, arial, sans-serif; font-size: 12px; fill: rgb(68, 68, 68); fill-opacity: 1; white-space: pre;" transform="translate(362.36208224509096,390.2722062974689)scale(0.8196245243466699)rotate(-5.420807138511464)">Freedom to make life choices: 0.837</text></g></g></g></g><g class="glimages"/><defs id="topdefs-40291f"><g class="clips"/></defs><g class="layer-above"><g class="imagelayer"/><g class="shapelayer"/></g><g class="infolayer"><g class="g-gtitle"><text class="gtitle" x="35" y="50" text-anchor="start" dy="0em" style="font-family: 'Open Sans', verdana, arial, sans-serif; font-size: 17px; fill: rgb(42, 63, 95); opacity: 1; font-weight: normal; white-space: pre;">Differences between Major Life Statistics in Finland and the US</text></g></g></svg>